<?xml version="1.0" encoding="UTF-8" standalone="no"?> <svg id="Layer_1" data-name="Layer 1" xmlns="http://www.w3.org/2000/svg" viewBox="0 0 128 128"><defs><style>.cls-1{fill:#837862;}.cls-2{fill:#fd4f57;}.cls-3{fill:#776c5a;}.cls-4{fill:#ea4b57;}.cls-5{fill:#fdf59a;}</style></defs><title>basket minus</title><path class="cls-1" d="M55.5,100.5A12.5,12.5,0,1,0,68,113,12.51,12.51,0,0,0,55.5,100.5Z"/><path class="cls-1" d="M98.5,100.5A12.5,12.5,0,1,0,111,113,12.51,12.51,0,0,0,98.5,100.5Z"/><path class="cls-2" d="M112,87.5H44.43a9.7,9.7,0,0,1-9.5-7.81L20.53,6.55A4.84,4.84,0,0,0,15.73,2.5H7a4,4,0,0,0,0,8h6.14L27.35,82.72A15.87,15.87,0,0,0,42.89,95.5H112a4,4,0,0,0,0-8Z"/><path class="cls-3" d="M57.5,125.34a12,12,0,0,1-2,.16,12.5,12.5,0,0,1,0-25,12,12,0,0,1,2,.16,12.5,12.5,0,0,0,0,24.68Z"/><path class="cls-3" d="M100.5,125.34a12,12,0,0,1-2,.16,12.5,12.5,0,0,1,0-25,12,12,0,0,1,2,.16,12.5,12.5,0,0,0,0,24.68Z"/><path class="cls-1" d="M122,36.1a6.93,6.93,0,0,0-5.43-2.6H37a7.06,7.06,0,0,0-6.94,8.35l6.67,35.93A9.45,9.45,0,0,0,46,85.5h62.21A7,7,0,0,0,115,80L123.38,42A6.93,6.93,0,0,0,122,36.1ZM114.4,73.5H107v-18h11.36Zm-9.4,0H87v-18h18Zm-58,2H65v8H47Zm-9-2-3.34-18H45v18Zm9-18H65v18H47Zm20-2v-18H85v18Zm18,2v18H67v-18Zm-20-2H47v-18H65Zm2,22H85v8H67Zm20,0h18v8H87Zm0-22v-18h18v18ZM33.11,37.32A5,5,0,0,1,37,35.5h8v18H34.26L32,41.48A5,5,0,0,1,33.11,37.32ZM38.7,77.41l-.35-1.91H45v7.92A7.45,7.45,0,0,1,38.7,77.41Zm74.35,2.19a5,5,0,0,1-4.85,3.9H107v-8h7Zm8.38-38.07-2.63,12H107v-18h9.58a5,5,0,0,1,4.85,6Z"/><path class="cls-4" d="M5.5,6.5a4,4,0,0,0,4,4H7a4,4,0,0,1,0-8H9.5A4,4,0,0,0,5.5,6.5Z"/><path class="cls-4" d="M45.39,95.5h-2.5A15.88,15.88,0,0,1,27.35,82.72L13.14,10.5h2.5L29.85,82.72A15.88,15.88,0,0,0,45.39,95.5Z"/><path class="cls-5" d="M55.5,117.5A4.5,4.5,0,1,1,60,113,4.5,4.5,0,0,1,55.5,117.5Zm0-7A2.5,2.5,0,1,0,58,113,2.5,2.5,0,0,0,55.5,110.5Z"/><path class="cls-5" d="M98.5,117.5A4.5,4.5,0,1,1,103,113,4.5,4.5,0,0,1,98.5,117.5Zm0-7A2.5,2.5,0,1,0,101,113,2.5,2.5,0,0,0,98.5,110.5Z"/><path class="cls-1" d="M107.5,15.83A17.52,17.52,0,0,0,90,33.33a18,18,0,0,0,17.5,17.5c8.26,0,17.5-7.48,17.5-17.5A17.52,17.52,0,0,0,107.5,15.83Z"/><path class="cls-3" d="M109.63,50.67a14,14,0,0,1-2.13.16A18,18,0,0,1,90,33.33,17.48,17.48,0,0,1,109.69,16,17.52,17.52,0,0,0,94.37,33.33C94.37,41.89,101.28,49.5,109.63,50.67Z"/><path class="cls-5" d="M115.19,34.33H99.81a1,1,0,0,1,0-2h15.37a1,1,0,0,1,0,2Z"/></svg>