<?xml version="1.0" encoding="UTF-8" standalone="no"?> <svg id="Layer_1" data-name="Layer 1" xmlns="http://www.w3.org/2000/svg" viewBox="0 0 512 512"><defs><style>.cls-1{fill:#00cf66;}.cls-2{fill:#00b157;}.cls-3{fill:#fac100;}.cls-4{fill:#eaeff0;}.cls-5{fill:#d9e1e2;}.cls-6{fill:#2d4a60;}</style></defs><title>Delivery Truck</title><path class="cls-1" d="M507.219,275.172,466.234,185.01A42.749,42.749,0,0,0,427.4,160H32a10.667,10.667,0,0,0-10.667,10.667V288h16a10.667,10.667,0,1,1,0,21.333h-16v32a32.035,32.035,0,0,0,32,32H480a32.035,32.035,0,0,0,32-32V297.242A52.958,52.958,0,0,0,507.219,275.172Z"/><path class="cls-2" d="M21.333,330.667v10.667a32.035,32.035,0,0,0,32,32H480a32.035,32.035,0,0,0,32-32V330.667Z"/><path class="cls-3" d="M490.667,309.333H512V297.242a53.255,53.255,0,0,0-.871-9.242H490.667A10.667,10.667,0,0,0,480,298.667h0A10.667,10.667,0,0,0,490.667,309.333Z"/><path class="cls-4" d="M432.324,202.667H384a10.667,10.667,0,0,0-10.667,10.667V256A10.667,10.667,0,0,0,384,266.667h74.586a10.667,10.667,0,0,0,9.711-15.081l-16.552-36.414A21.333,21.333,0,0,0,432.324,202.667Z"/><path class="cls-5" d="M466.328,247.256a10.476,10.476,0,0,1-7.742,3.41H384A10.667,10.667,0,0,1,373.333,240v16A10.667,10.667,0,0,0,384,266.667h74.586a10.667,10.667,0,0,0,9.711-15.081Z"/><path class="cls-5" d="M320,96H53.333a32.035,32.035,0,0,0-32,32V266.667H10.667a10.667,10.667,0,1,0,0,21.333H37.333a10.667,10.667,0,1,1,0,21.333H10.667a10.667,10.667,0,0,0,0,21.333H320a32.035,32.035,0,0,0,32-32V128A32.035,32.035,0,0,0,320,96Z"/><circle class="cls-6" cx="117.333" cy="362.667" r="48"/><circle class="cls-5" cx="117.333" cy="362.667" r="21.333"/><circle class="cls-6" cx="394.667" cy="362.667" r="48"/><circle class="cls-5" cx="394.667" cy="362.667" r="21.333"/></svg>