<?xml version="1.0" encoding="UTF-8" standalone="no"?> <svg id="Layer_1" data-name="Layer 1" xmlns="http://www.w3.org/2000/svg" xmlns:xlink="http://www.w3.org/1999/xlink" viewBox="0 0 512 512"><defs><style>.cls-1{fill:url(#linear-gradient);}.cls-2{fill:url(#linear-gradient-2);}.cls-3{fill:url(#linear-gradient-3);}.cls-4{fill:url(#linear-gradient-4);}.cls-5{fill:url(#linear-gradient-5);}.cls-6{fill:url(#linear-gradient-6);}</style><linearGradient id="linear-gradient" x1="128.432" y1="114.015" x2="419.003" y2="331.301" gradientUnits="userSpaceOnUse"><stop offset="0" stop-color="#34ca82"/><stop offset="1" stop-color="#37a477"/></linearGradient><linearGradient id="linear-gradient-2" x1="39.095" y1="120.02" x2="310.381" y2="436.305" gradientUnits="userSpaceOnUse"><stop offset="0" stop-color="#edf1f2"/><stop offset="1" stop-color="#c6cbcc"/></linearGradient><linearGradient id="linear-gradient-3" x1="135.881" y1="391.881" x2="203.388" y2="459.388" gradientUnits="userSpaceOnUse"><stop offset="0" stop-color="#3e4154"/><stop offset="1" stop-color="#1b2129"/></linearGradient><linearGradient id="linear-gradient-4" x1="156.774" y1="412.774" x2="183.049" y2="439.049" gradientUnits="userSpaceOnUse"><stop offset="0" stop-color="#fff"/><stop offset="1" stop-color="#edf1f2"/></linearGradient><linearGradient id="linear-gradient-5" x1="343.542" y1="391.542" x2="412.422" y2="460.422" xlink:href="#linear-gradient-3"/><linearGradient id="linear-gradient-6" x1="363.952" y1="411.952" x2="392.995" y2="440.995" xlink:href="#linear-gradient-4"/></defs><title>Shopping Cart</title><path class="cls-1" d="M160,352H377.689a32,32,0,0,0,31.231-25.029l38.614-172.99A21.334,21.334,0,0,0,426.713,128H112Z"/><path class="cls-2" d="M378.667,405.333h-208a10.664,10.664,0,0,1-10.412-8.351L99.969,125.688a10.61,10.61,0,0,0-10.417-8.355H58.667a10.667,10.667,0,1,1,0-21.333H89.552a31.816,31.816,0,0,1,31.24,25.055L179.224,384H378.667a10.667,10.667,0,0,1,0,21.333Z"/><circle class="cls-3" cx="170.667" cy="426.667" r="42.667"/><circle class="cls-4" cx="170.667" cy="426.667" r="18.667"/><circle class="cls-5" cx="378.667" cy="426.667" r="42.667"/><circle class="cls-6" cx="378.667" cy="426.667" r="18.667"/></svg>